<svg xmlns="http://www.w3.org/2000/svg" xmlns:xlink="http://www.w3.org/1999/xlink" width="500" zoomAndPan="magnify" viewBox="0 0 375 374.999991" height="500" preserveAspectRatio="xMidYMid meet" version="1.0"><defs><clipPath id="fa9188a414"><path d="M 134 83 L 351.707031 83 L 351.707031 291 L 134 291 Z M 134 83 " clip-rule="nonzero"/></clipPath><clipPath id="f45de5fce4"><path d="M 143 305 L 243 305 L 243 346.738281 L 143 346.738281 Z M 143 305 " clip-rule="nonzero"/></clipPath><clipPath id="52ddd31839"><path d="M 23.207031 28 L 245 28 L 245 290 L 23.207031 290 Z M 23.207031 28 " clip-rule="nonzero"/></clipPath></defs><g clip-path="url(#fa9188a414)"><path fill="#000000" d="M 280.117188 83.847656 L 280.117188 104.398438 L 331.238281 104.398438 L 331.238281 269.59375 L 155.855469 269.59375 C 156.691406 234.238281 167.597656 203.480469 186.363281 184.285156 C 201.378906 168.917969 220.953125 161.121094 244.53125 161.121094 L 244.53125 139.796875 C 215.414062 139.796875 190.023438 150.027344 171.117188 169.375 C 148.527344 192.492188 135.417969 228.640625 134.539062 269.585938 L 134.476562 269.585938 L 134.476562 290.136719 L 351.789062 290.136719 L 351.789062 83.835938 L 280.117188 83.835938 Z M 280.117188 83.847656 " fill-opacity="1" fill-rule="nonzero"/></g><g clip-path="url(#f45de5fce4)"><path fill="#000000" d="M 211.074219 305.496094 L 174.769531 305.496094 L 174.769531 326.046875 L 143.667969 326.046875 L 143.667969 346.597656 L 242.183594 346.597656 L 242.183594 326.046875 L 211.074219 326.046875 Z M 211.074219 305.496094 " fill-opacity="1" fill-rule="nonzero"/></g><g clip-path="url(#52ddd31839)"><path fill="#000000" d="M 244.53125 49 L 244.53125 28.449219 C 190.234375 28.449219 140.40625 47.960938 101.96875 83.847656 L 34.054688 83.847656 L 34.054688 121.304688 L 54.613281 121.304688 L 54.613281 104.398438 L 82.695312 104.398438 C 64.328125 126.714844 49.925781 153.027344 39.851562 182.703125 C 28.8125 215.234375 23.214844 251.171875 23.214844 289.527344 L 43.765625 289.527344 C 43.765625 147.910156 126.320312 49 244.53125 49 Z M 244.53125 49 " fill-opacity="1" fill-rule="nonzero"/></g><path fill="#000000" d="M 244.53125 109.058594 L 244.53125 87.734375 C 197.976562 87.734375 158.140625 105.152344 129.332031 138.109375 C 114.199219 155.414062 102.5 176.730469 94.546875 201.457031 C 86.242188 227.285156 82.027344 256.925781 82.027344 289.527344 L 103.34375 289.527344 C 103.34375 178.207031 157.445312 109.058594 244.53125 109.058594 Z M 244.53125 109.058594 " fill-opacity="1" fill-rule="nonzero"/></svg>