<svg version="1.0" preserveAspectRatio="xMidYMid meet" viewBox="9.440624999999999 111.44999732519999 300 167.24999598600002" zoomAndPan="magnify" xmlns:xlink="http://www.w3.org/1999/xlink" xmlns="http://www.w3.org/2000/svg" style="max-height: 500px" width="300" height="167.24999598600002"><defs><g/></defs><g fill-opacity="1" fill="#000000"><g transform="translate(15.97849, 203.193159)"><g><path d="M 5.71875 0 L 5.71875 -76.15625 L 23.1875 -76.15625 C 29.101562 -76.15625 33.148438 -74.359375 35.328125 -70.765625 C 37.503906 -67.179688 38.65625 -61.828125 38.78125 -54.703125 L 38.78125 -53.09375 C 38.78125 -45.539062 37.703125 -39.804688 35.546875 -35.890625 C 33.398438 -31.984375 29.410156 -30.03125 23.578125 -30.03125 L 17.3125 -30.03125 L 17.3125 0 Z M 17.3125 -39.59375 L 21.296875 -39.59375 C 23.742188 -39.59375 25.332031 -40.535156 26.0625 -42.421875 C 26.800781 -44.316406 27.171875 -47.921875 27.171875 -53.234375 L 27.171875 -54.703125 C 27.140625 -59.203125 26.742188 -62.414062 25.984375 -64.34375 C 25.222656 -66.28125 23.6875 -67.25 21.375 -67.25 L 17.3125 -67.25 Z M 17.3125 -39.59375"/></g></g></g><g fill-opacity="1" fill="#000000"><g transform="translate(56.822009, 203.193159)"><g><path d="M 37.859375 -20.765625 C 37.859375 -13.410156 36.546875 -7.96875 33.921875 -4.4375 C 31.296875 -0.90625 27.171875 0.859375 21.546875 0.859375 C 15.921875 0.859375 11.71875 -1.019531 8.9375 -4.78125 C 6.15625 -8.539062 4.765625 -13.957031 4.765625 -21.03125 L 4.765625 -54.21875 C 4.765625 -65.5625 7.734375 -72.644531 13.671875 -75.46875 C 15.867188 -76.507812 18.523438 -77.03125 21.640625 -77.03125 C 32.335938 -77.03125 37.6875 -70.28125 37.6875 -56.78125 L 37.6875 -46.296875 L 26.484375 -46.296875 L 26.484375 -56.046875 C 26.484375 -59.960938 26.148438 -62.765625 25.484375 -64.453125 C 24.828125 -66.140625 23.53125 -66.984375 21.59375 -66.984375 C 19.65625 -66.984375 18.3125 -66.085938 17.5625 -64.296875 C 16.8125 -62.515625 16.4375 -59.773438 16.4375 -56.078125 L 16.4375 -20.515625 C 16.4375 -16.410156 16.796875 -13.476562 17.515625 -11.71875 C 18.242188 -9.96875 19.554688 -9.09375 21.453125 -9.09375 C 23.359375 -9.09375 24.671875 -9.984375 25.390625 -11.765625 C 26.117188 -13.554688 26.484375 -16.515625 26.484375 -20.640625 L 26.484375 -31.546875 L 37.859375 -31.546875 Z M 37.859375 -20.765625"/></g></g></g><g fill-opacity="1" fill="#000000"><g transform="translate(98.401056, 203.193159)"><g/></g></g><g fill-opacity="1" fill="#000000"><g transform="translate(114.27984, 203.193159)"><g><path d="M 5.71875 0 L 5.71875 -76.15625 L 20.125 -76.15625 L 30.9375 -20.515625 L 41.109375 -76.15625 L 55.609375 -76.15625 L 55.609375 0 L 45.265625 0 L 45.265625 -28.390625 L 45.703125 -54.4375 L 35.4375 -0.34375 L 26.21875 -0.34375 L 15.53125 -54.4375 L 15.96875 -28.390625 L 15.96875 0 Z M 5.71875 0"/></g></g></g><g fill-opacity="1" fill="#000000"><g transform="translate(175.631652, 203.193159)"><g><path d="M 26.140625 -22.890625 L 21.03125 -61.140625 L 20.859375 -61.140625 L 16.1875 -22.890625 Z M 2.25 0 L 13.109375 -76.15625 L 28.4375 -76.15625 L 39.984375 0 L 29.171875 0 L 27.34375 -13.59375 L 15.0625 -13.59375 L 13.421875 0 Z M 2.25 0"/></g></g></g><g fill-opacity="1" fill="#000000"><g transform="translate(217.859697, 203.193159)"><g><path d="M 21.03125 -35.78125 L 17.3125 -35.953125 L 17.3125 0 L 5.71875 0 L 5.71875 -76.15625 L 24.875 -76.15625 C 28.863281 -76.15625 31.835938 -75.351562 33.796875 -73.75 C 35.753906 -72.15625 37.039062 -69.921875 37.65625 -67.046875 C 38.28125 -64.179688 38.59375 -60.429688 38.59375 -55.796875 C 38.59375 -51.171875 38.101562 -47.644531 37.125 -45.21875 C 36.144531 -42.800781 34.328125 -41.171875 31.671875 -40.328125 C 34.296875 -39.867188 36.128906 -38.09375 37.171875 -35 C 38.210938 -31.914062 38.734375 -25.488281 38.734375 -15.71875 C 38.734375 -5.957031 38.875 -0.71875 39.15625 0 L 27.5625 0 C 27.269531 -0.570312 27.125 -9.675781 27.125 -27.3125 C 27.125 -30.6875 26.71875 -32.925781 25.90625 -34.03125 C 25.101562 -35.144531 23.476562 -35.726562 21.03125 -35.78125 Z M 17.359375 -44.96875 L 21.984375 -44.96875 C 23.453125 -44.96875 24.539062 -45.296875 25.25 -45.953125 C 25.957031 -46.617188 26.445312 -47.757812 26.71875 -49.375 C 26.988281 -50.988281 27.125 -53.457031 27.125 -56.78125 L 27.125 -57.25 C 27.125 -61.375 26.78125 -64.070312 26.09375 -65.34375 C 25.40625 -66.613281 23.804688 -67.25 21.296875 -67.25 L 17.359375 -67.25 Z M 17.359375 -44.96875"/></g></g></g><g fill-opacity="1" fill="#000000"><g transform="translate(261.558802, 203.193159)"><g><path d="M 9.609375 0 L 9.609375 -66.125 L 0.6875 -66.125 L 0.6875 -76.15625 L 29.734375 -76.15625 L 29.734375 -66.125 L 21.15625 -66.125 L 21.15625 0 Z M 9.609375 0"/></g></g></g><g fill-opacity="1" fill="#000000"><g transform="translate(15.97849, 265.697649)"><g><path d="M 0.625 -39.65625 L 13.71875 -39.65625 L 13.71875 -35.78125 L 9.640625 -35.78125 L 9.640625 0 L 5 0 L 5 -35.78125 L 0.625 -35.78125 Z M 0.625 -39.65625"/></g></g></g><g fill-opacity="1" fill="#000000"><g transform="translate(30.328636, 265.697649)"><g><path d="M 3.25 -39.65625 L 15.09375 -39.65625 L 15.09375 -35.78125 L 7.90625 -35.78125 L 7.90625 -22.21875 L 14.71875 -22.21875 L 14.71875 -18.34375 L 7.90625 -18.34375 L 7.90625 -3.875 L 15.1875 -3.875 L 15.1875 0 L 3.25 0 Z M 3.25 -39.65625"/></g></g></g><g fill-opacity="1" fill="#000000"><g transform="translate(47.697494, 265.697649)"><g><path d="M 2.796875 -28.203125 C 2.796875 -31.210938 3.039062 -33.421875 3.53125 -34.828125 C 4.03125 -36.242188 4.570312 -37.28125 5.15625 -37.9375 C 6.4375 -39.382812 8.300781 -40.113281 10.75 -40.125 C 14.175781 -40.113281 16.382812 -38.601562 17.375 -35.59375 C 17.9375 -33.863281 18.21875 -31.566406 18.21875 -28.703125 L 18.21875 -24.3125 L 13.65625 -24.3125 L 13.65625 -28.71875 C 13.65625 -31.257812 13.515625 -32.976562 13.234375 -33.875 C 12.953125 -34.769531 12.613281 -35.363281 12.21875 -35.65625 C 11.832031 -35.945312 11.34375 -36.09375 10.75 -36.09375 C 9.5 -36.09375 8.632812 -35.503906 8.15625 -34.328125 C 7.6875 -33.148438 7.453125 -31.289062 7.453125 -28.75 L 7.453125 -11.578125 C 7.453125 -8.578125 7.664062 -6.476562 8.09375 -5.28125 C 8.519531 -4.082031 9.34375 -3.484375 10.5625 -3.484375 C 11.789062 -3.484375 12.613281 -4.082031 13.03125 -5.28125 C 13.445312 -6.488281 13.65625 -8.597656 13.65625 -11.609375 L 13.65625 -16 L 18.265625 -16 L 18.265625 -11.640625 C 18.265625 -7.484375 17.695312 -4.425781 16.5625 -2.46875 C 15.4375 -0.507812 13.457031 0.46875 10.625 0.46875 C 7.800781 0.46875 5.789062 -0.539062 4.59375 -2.5625 C 3.394531 -4.582031 2.796875 -7.625 2.796875 -11.6875 Z M 2.796875 -28.203125"/></g></g></g><g fill-opacity="1" fill="#000000"><g transform="translate(68.377916, 265.697649)"><g><path d="M 14.265625 -39.65625 L 18.921875 -39.65625 L 18.921875 0 L 14.265625 0 L 14.265625 -19.21875 L 7.90625 -19.21875 L 7.90625 0 L 3.25 0 L 3.25 -39.65625 L 7.90625 -39.65625 L 7.90625 -23.03125 L 14.265625 -23.03125 Z M 14.265625 -39.65625"/></g></g></g><g fill-opacity="1" fill="#000000"><g transform="translate(90.545166, 265.697649)"><g/></g></g><g fill-opacity="1" fill="#000000"><g transform="translate(101.876601, 265.697649)"><g><path d="M 20.125 -39.65625 L 25.953125 -39.65625 L 25.953125 0 L 21.8125 0 L 21.8125 -15.90625 L 22.1875 -30.734375 L 16.8125 -0.0625 L 12.59375 -0.0625 L 6.984375 -30.734375 L 7.359375 -15.90625 L 7.359375 0 L 3.25 0 L 3.25 -39.65625 L 9.0625 -39.65625 L 14.734375 -7.046875 Z M 20.125 -39.65625"/></g></g></g><g fill-opacity="1" fill="#000000"><g transform="translate(131.072491, 265.697649)"><g><path d="M 7.5 -39.65625 L 13.109375 -39.65625 L 19.671875 0 L 15.28125 0 L 14.15625 -7.5625 L 6.96875 -7.5625 L 5.921875 0 L 1.484375 0 Z M 7.484375 -11.359375 L 13.5625 -11.359375 L 10.4375 -32.3125 L 10.359375 -32.3125 Z M 7.484375 -11.359375"/></g></g></g><g fill-opacity="1" fill="#000000"><g transform="translate(152.226, 265.697649)"><g><path d="M 3.21875 -39.65625 L 10.671875 -39.65625 C 13.710938 -39.65625 15.800781 -38.71875 16.9375 -36.84375 C 18.082031 -34.976562 18.65625 -32.328125 18.65625 -28.890625 L 18.671875 -11.46875 C 18.671875 -7.394531 18.046875 -4.460938 16.796875 -2.671875 C 15.554688 -0.890625 13.460938 0 10.515625 0 L 3.21875 0 Z M 14.015625 -29 C 14.015625 -31.476562 13.71875 -33.253906 13.125 -34.328125 C 12.539062 -35.410156 11.582031 -35.953125 10.25 -35.953125 L 7.859375 -35.953125 L 7.859375 -3.765625 L 10.25 -3.765625 C 11.15625 -3.765625 11.863281 -3.941406 12.375 -4.296875 C 13.46875 -5.078125 14.015625 -7.226562 14.015625 -10.75 Z M 14.015625 -29"/></g></g></g><g fill-opacity="1" fill="#000000"><g transform="translate(173.604787, 265.697649)"><g><path d="M 3.25 -39.65625 L 15.09375 -39.65625 L 15.09375 -35.78125 L 7.90625 -35.78125 L 7.90625 -22.21875 L 14.71875 -22.21875 L 14.71875 -18.34375 L 7.90625 -18.34375 L 7.90625 -3.875 L 15.1875 -3.875 L 15.1875 0 L 3.25 0 Z M 3.25 -39.65625"/></g></g></g><g fill-opacity="1" fill="#000000"><g transform="translate(190.973645, 265.697649)"><g/></g></g><g fill-opacity="1" fill="#000000"><g transform="translate(202.30508, 265.697649)"><g><path d="M 3.25 -39.65625 L 15.09375 -39.65625 L 15.09375 -35.78125 L 7.90625 -35.78125 L 7.90625 -22.21875 L 14.71875 -22.21875 L 14.71875 -18.34375 L 7.90625 -18.34375 L 7.90625 -3.875 L 15.1875 -3.875 L 15.1875 0 L 3.25 0 Z M 3.25 -39.65625"/></g></g></g><g fill-opacity="1" fill="#000000"><g transform="translate(219.673926, 265.697649)"><g><path d="M 7.5 -39.65625 L 13.109375 -39.65625 L 19.671875 0 L 15.28125 0 L 14.15625 -7.5625 L 6.96875 -7.5625 L 5.921875 0 L 1.484375 0 Z M 7.484375 -11.359375 L 13.5625 -11.359375 L 10.4375 -32.3125 L 10.359375 -32.3125 Z M 7.484375 -11.359375"/></g></g></g><g fill-opacity="1" fill="#000000"><g transform="translate(240.827435, 265.697649)"><g><path d="M 2.796875 -27.375 C 2.523438 -28.320312 2.390625 -29.457031 2.390625 -30.78125 C 2.390625 -33.644531 2.914062 -35.921875 3.96875 -37.609375 C 5.03125 -39.296875 7.054688 -40.140625 10.046875 -40.140625 C 13.890625 -40.140625 16.160156 -38.296875 16.859375 -34.609375 C 17.148438 -33.015625 17.296875 -31.007812 17.296875 -28.59375 L 17.296875 -26.25 L 12.84375 -26.25 L 12.84375 -28.90625 C 12.84375 -31.425781 12.710938 -33.117188 12.453125 -33.984375 C 12.203125 -34.859375 11.890625 -35.4375 11.515625 -35.71875 C 11.140625 -36.007812 10.648438 -36.15625 10.046875 -36.15625 C 8.921875 -36.15625 8.109375 -35.742188 7.609375 -34.921875 C 7.117188 -34.097656 6.875 -32.875 6.875 -31.25 C 6.875 -29.625 7.097656 -28.4375 7.546875 -27.6875 C 7.992188 -26.9375 8.546875 -26.21875 9.203125 -25.53125 C 9.867188 -24.851562 10.238281 -24.46875 10.3125 -24.375 L 13.015625 -21.515625 C 16.265625 -18.117188 17.890625 -14.316406 17.890625 -10.109375 C 17.890625 -6.691406 17.359375 -4.078125 16.296875 -2.265625 C 15.242188 -0.453125 13.226562 0.453125 10.25 0.453125 C 6.65625 0.453125 4.378906 -1.125 3.421875 -4.28125 C 2.867188 -6.050781 2.59375 -8.375 2.59375 -11.25 C 2.59375 -11.320312 2.59375 -11.394531 2.59375 -11.46875 L 2.59375 -15.3125 L 7.125 -15.3125 L 7.125 -11.28125 C 7.125 -8.382812 7.332031 -6.367188 7.75 -5.234375 C 8.164062 -4.097656 8.945312 -3.53125 10.09375 -3.53125 C 11.238281 -3.53125 12.023438 -3.796875 12.453125 -4.328125 C 12.890625 -4.867188 13.140625 -5.6875 13.203125 -6.78125 C 13.273438 -7.875 13.3125 -9.101562 13.3125 -10.46875 C 13.3125 -13.21875 12.101562 -15.800781 9.6875 -18.21875 L 7.09375 -20.8125 C 4.78125 -23.1875 3.347656 -25.375 2.796875 -27.375 Z M 2.796875 -27.375"/></g></g></g><g fill-opacity="1" fill="#000000"><g transform="translate(260.471584, 265.697649)"><g><path d="M 13.828125 -39.65625 L 18.40625 -39.65625 L 12.015625 -16.65625 L 12.015625 0 L 7.34375 0 L 7.34375 -16.65625 L 0.453125 -39.65625 L 4.984375 -39.65625 L 9.671875 -23.4375 L 9.75 -23.4375 Z M 13.828125 -39.65625"/></g></g></g></svg>