<svg version="1.0" preserveAspectRatio="xMidYMid meet" viewBox="9.440624999999999 111.44999732519999 300 167.24999598600002" zoomAndPan="magnify" xmlns:xlink="http://www.w3.org/1999/xlink" xmlns="http://www.w3.org/2000/svg" style="max-height: 500px" width="300" height="167.24999598600002"><defs><g/></defs><g fill-opacity="1" fill="#ffffff"><g transform="translate(15.97849, 202.435518)"><g><path d="M 5.640625 0 L 5.640625 -75.21875 L 22.90625 -75.21875 C 28.75 -75.21875 32.742188 -73.441406 34.890625 -69.890625 C 37.046875 -66.347656 38.179688 -61.054688 38.296875 -54.015625 L 38.296875 -52.4375 C 38.296875 -44.976562 37.234375 -39.316406 35.109375 -35.453125 C 32.984375 -31.585938 29.046875 -29.65625 23.296875 -29.65625 L 17.09375 -29.65625 L 17.09375 0 Z M 17.09375 -39.109375 L 21.03125 -39.109375 C 23.445312 -39.109375 25.019531 -40.039062 25.75 -41.90625 C 26.476562 -43.769531 26.84375 -47.320312 26.84375 -52.5625 L 26.84375 -54.015625 C 26.8125 -58.460938 26.414062 -61.640625 25.65625 -63.546875 C 24.90625 -65.460938 23.390625 -66.421875 21.109375 -66.421875 L 17.09375 -66.421875 Z M 17.09375 -39.109375"/></g></g></g><g fill-opacity="1" fill="#ffffff"><g transform="translate(56.317721, 202.435518)"><g><path d="M 37.390625 -20.515625 C 37.390625 -13.242188 36.09375 -7.863281 33.5 -4.375 C 30.914062 -0.882812 26.84375 0.859375 21.28125 0.859375 C 15.726562 0.859375 11.578125 -1 8.828125 -4.71875 C 6.078125 -8.4375 4.703125 -13.785156 4.703125 -20.765625 L 4.703125 -53.546875 C 4.703125 -64.742188 7.632812 -71.738281 13.5 -74.53125 C 15.664062 -75.5625 18.289062 -76.078125 21.375 -76.078125 C 31.9375 -76.078125 37.21875 -69.410156 37.21875 -56.078125 L 37.21875 -45.734375 L 26.15625 -45.734375 L 26.15625 -55.34375 C 26.15625 -59.21875 25.828125 -61.988281 25.171875 -63.65625 C 24.515625 -65.320312 23.234375 -66.15625 21.328125 -66.15625 C 19.421875 -66.15625 18.09375 -65.269531 17.34375 -63.5 C 16.601562 -61.738281 16.234375 -59.035156 16.234375 -55.390625 L 16.234375 -20.265625 C 16.234375 -16.210938 16.585938 -13.316406 17.296875 -11.578125 C 18.015625 -9.835938 19.3125 -8.96875 21.1875 -8.96875 C 23.070312 -8.96875 24.367188 -9.851562 25.078125 -11.625 C 25.796875 -13.394531 26.15625 -16.316406 26.15625 -20.390625 L 26.15625 -31.15625 L 37.390625 -31.15625 Z M 37.390625 -20.515625"/></g></g></g><g fill-opacity="1" fill="#ffffff"><g transform="translate(97.3834, 202.435518)"><g/></g></g><g fill-opacity="1" fill="#ffffff"><g transform="translate(113.06613, 202.435518)"><g><path d="M 5.640625 0 L 5.640625 -75.21875 L 19.875 -75.21875 L 30.5625 -20.265625 L 40.609375 -75.21875 L 54.921875 -75.21875 L 54.921875 0 L 44.703125 0 L 44.703125 -28.03125 L 45.140625 -53.765625 L 35 -0.34375 L 25.90625 -0.34375 L 15.34375 -53.765625 L 15.765625 -28.03125 L 15.765625 0 Z M 5.640625 0"/></g></g></g><g fill-opacity="1" fill="#ffffff"><g transform="translate(173.660441, 202.435518)"><g><path d="M 25.8125 -22.609375 L 20.765625 -60.390625 L 20.59375 -60.390625 L 15.984375 -22.609375 Z M 2.21875 0 L 12.953125 -75.21875 L 28.078125 -75.21875 L 39.484375 0 L 28.8125 0 L 27.015625 -13.421875 L 14.875 -13.421875 L 13.25 0 Z M 2.21875 0"/></g></g></g><g fill-opacity="1" fill="#ffffff"><g transform="translate(215.367103, 202.435518)"><g><path d="M 20.765625 -35.34375 L 17.09375 -35.515625 L 17.09375 0 L 5.640625 0 L 5.640625 -75.21875 L 24.578125 -75.21875 C 28.503906 -75.21875 31.4375 -74.425781 33.375 -72.84375 C 35.3125 -71.269531 36.585938 -69.0625 37.203125 -66.21875 C 37.816406 -63.382812 38.125 -59.679688 38.125 -55.109375 C 38.125 -50.535156 37.640625 -47.050781 36.671875 -44.65625 C 35.703125 -42.269531 33.90625 -40.660156 31.28125 -39.828125 C 33.875 -39.378906 35.679688 -37.628906 36.703125 -34.578125 C 37.734375 -31.523438 38.25 -25.175781 38.25 -15.53125 C 38.25 -5.882812 38.390625 -0.707031 38.671875 0 L 27.21875 0 C 26.9375 -0.570312 26.796875 -9.5625 26.796875 -26.96875 C 26.796875 -30.300781 26.394531 -32.515625 25.59375 -33.609375 C 24.800781 -34.710938 23.191406 -35.289062 20.765625 -35.34375 Z M 17.140625 -44.40625 L 21.71875 -44.40625 C 23.164062 -44.40625 24.238281 -44.734375 24.9375 -45.390625 C 25.632812 -46.046875 26.117188 -47.171875 26.390625 -48.765625 C 26.660156 -50.359375 26.796875 -52.796875 26.796875 -56.078125 L 26.796875 -56.546875 C 26.796875 -60.617188 26.453125 -63.28125 25.765625 -64.53125 C 25.085938 -65.789062 23.507812 -66.421875 21.03125 -66.421875 L 17.140625 -66.421875 Z M 17.140625 -44.40625"/></g></g></g><g fill-opacity="1" fill="#ffffff"><g transform="translate(258.526662, 202.435518)"><g><path d="M 9.484375 0 L 9.484375 -65.3125 L 0.6875 -65.3125 L 0.6875 -75.21875 L 29.359375 -75.21875 L 29.359375 -65.3125 L 20.90625 -65.3125 L 20.90625 0 Z M 9.484375 0"/></g></g></g><g fill-opacity="1" fill="#ffffff"><g transform="translate(15.97849, 265.697649)"><g><path d="M 0.625 -39.65625 L 13.71875 -39.65625 L 13.71875 -35.78125 L 9.640625 -35.78125 L 9.640625 0 L 5 0 L 5 -35.78125 L 0.625 -35.78125 Z M 0.625 -39.65625"/></g></g></g><g fill-opacity="1" fill="#ffffff"><g transform="translate(30.328636, 265.697649)"><g><path d="M 3.25 -39.65625 L 15.09375 -39.65625 L 15.09375 -35.78125 L 7.90625 -35.78125 L 7.90625 -22.21875 L 14.71875 -22.21875 L 14.71875 -18.34375 L 7.90625 -18.34375 L 7.90625 -3.875 L 15.1875 -3.875 L 15.1875 0 L 3.25 0 Z M 3.25 -39.65625"/></g></g></g><g fill-opacity="1" fill="#ffffff"><g transform="translate(47.697494, 265.697649)"><g><path d="M 2.796875 -28.203125 C 2.796875 -31.210938 3.039062 -33.421875 3.53125 -34.828125 C 4.03125 -36.242188 4.570312 -37.28125 5.15625 -37.9375 C 6.4375 -39.382812 8.300781 -40.113281 10.75 -40.125 C 14.175781 -40.113281 16.382812 -38.601562 17.375 -35.59375 C 17.9375 -33.863281 18.21875 -31.566406 18.21875 -28.703125 L 18.21875 -24.3125 L 13.65625 -24.3125 L 13.65625 -28.71875 C 13.65625 -31.257812 13.515625 -32.976562 13.234375 -33.875 C 12.953125 -34.769531 12.613281 -35.363281 12.21875 -35.65625 C 11.832031 -35.945312 11.34375 -36.09375 10.75 -36.09375 C 9.5 -36.09375 8.632812 -35.503906 8.15625 -34.328125 C 7.6875 -33.148438 7.453125 -31.289062 7.453125 -28.75 L 7.453125 -11.578125 C 7.453125 -8.578125 7.664062 -6.476562 8.09375 -5.28125 C 8.519531 -4.082031 9.34375 -3.484375 10.5625 -3.484375 C 11.789062 -3.484375 12.613281 -4.082031 13.03125 -5.28125 C 13.445312 -6.488281 13.65625 -8.597656 13.65625 -11.609375 L 13.65625 -16 L 18.265625 -16 L 18.265625 -11.640625 C 18.265625 -7.484375 17.695312 -4.425781 16.5625 -2.46875 C 15.4375 -0.507812 13.457031 0.46875 10.625 0.46875 C 7.800781 0.46875 5.789062 -0.539062 4.59375 -2.5625 C 3.394531 -4.582031 2.796875 -7.625 2.796875 -11.6875 Z M 2.796875 -28.203125"/></g></g></g><g fill-opacity="1" fill="#ffffff"><g transform="translate(68.377916, 265.697649)"><g><path d="M 14.265625 -39.65625 L 18.921875 -39.65625 L 18.921875 0 L 14.265625 0 L 14.265625 -19.21875 L 7.90625 -19.21875 L 7.90625 0 L 3.25 0 L 3.25 -39.65625 L 7.90625 -39.65625 L 7.90625 -23.03125 L 14.265625 -23.03125 Z M 14.265625 -39.65625"/></g></g></g><g fill-opacity="1" fill="#ffffff"><g transform="translate(90.545166, 265.697649)"><g/></g></g><g fill-opacity="1" fill="#ffffff"><g transform="translate(101.876601, 265.697649)"><g><path d="M 20.125 -39.65625 L 25.953125 -39.65625 L 25.953125 0 L 21.8125 0 L 21.8125 -15.90625 L 22.1875 -30.734375 L 16.8125 -0.0625 L 12.59375 -0.0625 L 6.984375 -30.734375 L 7.359375 -15.90625 L 7.359375 0 L 3.25 0 L 3.25 -39.65625 L 9.0625 -39.65625 L 14.734375 -7.046875 Z M 20.125 -39.65625"/></g></g></g><g fill-opacity="1" fill="#ffffff"><g transform="translate(131.072491, 265.697649)"><g><path d="M 7.5 -39.65625 L 13.109375 -39.65625 L 19.671875 0 L 15.28125 0 L 14.15625 -7.5625 L 6.96875 -7.5625 L 5.921875 0 L 1.484375 0 Z M 7.484375 -11.359375 L 13.5625 -11.359375 L 10.4375 -32.3125 L 10.359375 -32.3125 Z M 7.484375 -11.359375"/></g></g></g><g fill-opacity="1" fill="#ffffff"><g transform="translate(152.226, 265.697649)"><g><path d="M 3.21875 -39.65625 L 10.671875 -39.65625 C 13.710938 -39.65625 15.800781 -38.71875 16.9375 -36.84375 C 18.082031 -34.976562 18.65625 -32.328125 18.65625 -28.890625 L 18.671875 -11.46875 C 18.671875 -7.394531 18.046875 -4.460938 16.796875 -2.671875 C 15.554688 -0.890625 13.460938 0 10.515625 0 L 3.21875 0 Z M 14.015625 -29 C 14.015625 -31.476562 13.71875 -33.253906 13.125 -34.328125 C 12.539062 -35.410156 11.582031 -35.953125 10.25 -35.953125 L 7.859375 -35.953125 L 7.859375 -3.765625 L 10.25 -3.765625 C 11.15625 -3.765625 11.863281 -3.941406 12.375 -4.296875 C 13.46875 -5.078125 14.015625 -7.226562 14.015625 -10.75 Z M 14.015625 -29"/></g></g></g><g fill-opacity="1" fill="#ffffff"><g transform="translate(173.604787, 265.697649)"><g><path d="M 3.25 -39.65625 L 15.09375 -39.65625 L 15.09375 -35.78125 L 7.90625 -35.78125 L 7.90625 -22.21875 L 14.71875 -22.21875 L 14.71875 -18.34375 L 7.90625 -18.34375 L 7.90625 -3.875 L 15.1875 -3.875 L 15.1875 0 L 3.25 0 Z M 3.25 -39.65625"/></g></g></g><g fill-opacity="1" fill="#ffffff"><g transform="translate(190.973645, 265.697649)"><g/></g></g><g fill-opacity="1" fill="#ffffff"><g transform="translate(202.30508, 265.697649)"><g><path d="M 3.25 -39.65625 L 15.09375 -39.65625 L 15.09375 -35.78125 L 7.90625 -35.78125 L 7.90625 -22.21875 L 14.71875 -22.21875 L 14.71875 -18.34375 L 7.90625 -18.34375 L 7.90625 -3.875 L 15.1875 -3.875 L 15.1875 0 L 3.25 0 Z M 3.25 -39.65625"/></g></g></g><g fill-opacity="1" fill="#ffffff"><g transform="translate(219.673926, 265.697649)"><g><path d="M 7.5 -39.65625 L 13.109375 -39.65625 L 19.671875 0 L 15.28125 0 L 14.15625 -7.5625 L 6.96875 -7.5625 L 5.921875 0 L 1.484375 0 Z M 7.484375 -11.359375 L 13.5625 -11.359375 L 10.4375 -32.3125 L 10.359375 -32.3125 Z M 7.484375 -11.359375"/></g></g></g><g fill-opacity="1" fill="#ffffff"><g transform="translate(240.827435, 265.697649)"><g><path d="M 2.796875 -27.375 C 2.523438 -28.320312 2.390625 -29.457031 2.390625 -30.78125 C 2.390625 -33.644531 2.914062 -35.921875 3.96875 -37.609375 C 5.03125 -39.296875 7.054688 -40.140625 10.046875 -40.140625 C 13.890625 -40.140625 16.160156 -38.296875 16.859375 -34.609375 C 17.148438 -33.015625 17.296875 -31.007812 17.296875 -28.59375 L 17.296875 -26.25 L 12.84375 -26.25 L 12.84375 -28.90625 C 12.84375 -31.425781 12.710938 -33.117188 12.453125 -33.984375 C 12.203125 -34.859375 11.890625 -35.4375 11.515625 -35.71875 C 11.140625 -36.007812 10.648438 -36.15625 10.046875 -36.15625 C 8.921875 -36.15625 8.109375 -35.742188 7.609375 -34.921875 C 7.117188 -34.097656 6.875 -32.875 6.875 -31.25 C 6.875 -29.625 7.097656 -28.4375 7.546875 -27.6875 C 7.992188 -26.9375 8.546875 -26.21875 9.203125 -25.53125 C 9.867188 -24.851562 10.238281 -24.46875 10.3125 -24.375 L 13.015625 -21.515625 C 16.265625 -18.117188 17.890625 -14.316406 17.890625 -10.109375 C 17.890625 -6.691406 17.359375 -4.078125 16.296875 -2.265625 C 15.242188 -0.453125 13.226562 0.453125 10.25 0.453125 C 6.65625 0.453125 4.378906 -1.125 3.421875 -4.28125 C 2.867188 -6.050781 2.59375 -8.375 2.59375 -11.25 C 2.59375 -11.320312 2.59375 -11.394531 2.59375 -11.46875 L 2.59375 -15.3125 L 7.125 -15.3125 L 7.125 -11.28125 C 7.125 -8.382812 7.332031 -6.367188 7.75 -5.234375 C 8.164062 -4.097656 8.945312 -3.53125 10.09375 -3.53125 C 11.238281 -3.53125 12.023438 -3.796875 12.453125 -4.328125 C 12.890625 -4.867188 13.140625 -5.6875 13.203125 -6.78125 C 13.273438 -7.875 13.3125 -9.101562 13.3125 -10.46875 C 13.3125 -13.21875 12.101562 -15.800781 9.6875 -18.21875 L 7.09375 -20.8125 C 4.78125 -23.1875 3.347656 -25.375 2.796875 -27.375 Z M 2.796875 -27.375"/></g></g></g><g fill-opacity="1" fill="#ffffff"><g transform="translate(260.471584, 265.697649)"><g><path d="M 13.828125 -39.65625 L 18.40625 -39.65625 L 12.015625 -16.65625 L 12.015625 0 L 7.34375 0 L 7.34375 -16.65625 L 0.453125 -39.65625 L 4.984375 -39.65625 L 9.671875 -23.4375 L 9.75 -23.4375 Z M 13.828125 -39.65625"/></g></g></g></svg>